<mxfile host="app.diagrams.net" modified="2023-07-11T06:37:42.846Z" agent="Mozilla/5.0 (Windows NT 10.0; Win64; x64; rv:109.0) Gecko/20100101 Firefox/115.0" etag="iRCxQYERoZZTbgPYyri_" version="21.6.1" type="github">
  <diagram name="Page-1" id="1ovTspPTMqNsLIIFMf38">
    <mxGraphModel dx="2072" dy="1741" grid="1" gridSize="10" guides="1" tooltips="1" connect="1" arrows="1" fold="1" page="1" pageScale="1" pageWidth="850" pageHeight="1100" math="0" shadow="0">
      <root>
        <mxCell id="0" />
        <mxCell id="1" parent="0" />
        <mxCell id="1qxbNoPxb2yvk7hj9VaQ-1" value="" style="whiteSpace=wrap;html=1;aspect=fixed;" vertex="1" parent="1">
          <mxGeometry y="-130" width="830" height="830" as="geometry" />
        </mxCell>
        <mxCell id="1qxbNoPxb2yvk7hj9VaQ-2" value="Region" style="text;html=1;align=center;verticalAlign=middle;resizable=0;points=[];autosize=1;strokeColor=none;fillColor=none;" vertex="1" parent="1">
          <mxGeometry y="-162" width="60" height="30" as="geometry" />
        </mxCell>
        <mxCell id="1qxbNoPxb2yvk7hj9VaQ-3" value="&lt;div&gt;AWS&lt;/div&gt;&lt;div&gt;&lt;br&gt;&lt;/div&gt;" style="text;html=1;align=center;verticalAlign=middle;resizable=0;points=[];autosize=1;strokeColor=none;fillColor=none;" vertex="1" parent="1">
          <mxGeometry x="-15" y="-217" width="50" height="40" as="geometry" />
        </mxCell>
        <mxCell id="1qxbNoPxb2yvk7hj9VaQ-4" value="" style="whiteSpace=wrap;html=1;aspect=fixed;" vertex="1" parent="1">
          <mxGeometry x="20" y="-110" width="790" height="790" as="geometry" />
        </mxCell>
      </root>
    </mxGraphModel>
  </diagram>
</mxfile>
